<svg width="24" height="24" viewBox="0 0 24 24" fill="none" xmlns="http://www.w3.org/2000/svg">
<path opacity="0.6" fill-rule="evenodd" clip-rule="evenodd" d="M11.6784 14.648C13.2868 14.648 14.5907 13.3441 14.5907 11.7357C14.5907 10.1272 13.2868 8.82336 11.6784 8.82336C10.07 8.82336 8.76611 10.1272 8.76611 11.7357C8.76611 13.3441 10.07 14.648 11.6784 14.648Z" stroke="#627185" stroke-width="1.3" stroke-linecap="round" stroke-linejoin="round"/>
<path fill-rule="evenodd" clip-rule="evenodd" d="M18.8621 14.648C18.5977 15.247 18.7246 15.9467 19.1824 16.4148L19.2407 16.473C19.6052 16.8372 19.8101 17.3313 19.8101 17.8466C19.8101 18.3619 19.6052 18.8561 19.2407 19.2203C18.8765 19.5848 18.3823 19.7897 17.867 19.7897C17.3517 19.7897 16.8576 19.5848 16.4934 19.2203L16.4352 19.162C15.9671 18.7041 15.2674 18.5773 14.6684 18.8417C14.0816 19.0932 13.7002 19.6691 13.6976 20.3075V20.4726C13.6976 21.5448 12.8284 22.4141 11.7561 22.4141C10.6838 22.4141 9.81455 21.5448 9.81455 20.4726V20.3852C9.79917 19.7277 9.3834 19.1464 8.76612 18.9193C8.16707 18.6549 7.46742 18.7818 6.99933 19.2397L6.94108 19.2979C6.57691 19.6625 6.08275 19.8673 5.56745 19.8673C5.05215 19.8673 4.55799 19.6625 4.19382 19.2979C3.82924 18.9338 3.62439 18.4396 3.62439 17.9243C3.62439 17.409 3.82924 16.9148 4.19382 16.5507L4.25206 16.4924C4.70994 16.0243 4.8368 15.3247 4.57242 14.7256C4.32092 14.1388 3.74498 13.7574 3.10656 13.7549H2.94153C1.86925 13.7549 1 12.8856 1 11.8133C1 10.741 1.86925 9.8718 2.94153 9.8718H3.0289C3.68643 9.85642 4.26773 9.44065 4.49475 8.82337C4.75914 8.22432 4.63228 7.52467 4.1744 7.05658L4.11616 6.99833C3.75158 6.63416 3.54673 6.14 3.54673 5.6247C3.54673 5.1094 3.75158 4.61524 4.11616 4.25107C4.48032 3.88649 4.97449 3.68164 5.48979 3.68164C6.00509 3.68164 6.49925 3.88649 6.86342 4.25107L6.92167 4.30931C7.38976 4.76719 8.08941 4.89405 8.68846 4.62967H8.76612C9.35292 4.37817 9.73434 3.80223 9.73688 3.16381V2.99878C9.73688 1.9265 10.6061 1.05725 11.6784 1.05725C12.7507 1.05725 13.6199 1.9265 13.6199 2.99878V3.08615C13.6225 3.72457 14.0039 4.30051 14.5907 4.552C15.1898 4.81639 15.8894 4.68953 16.3575 4.23165L16.4157 4.17341C16.7799 3.80883 17.2741 3.60398 17.7894 3.60398C18.3047 3.60398 18.7988 3.80883 19.163 4.17341C19.5276 4.53758 19.7324 5.03174 19.7324 5.54704C19.7324 6.06234 19.5276 6.5565 19.163 6.92067L19.1048 6.97892C18.6469 7.44701 18.52 8.14666 18.7844 8.74571V8.82337C19.0359 9.41017 19.6119 9.79159 20.2503 9.79414H20.4153C21.4876 9.79414 22.3568 10.6634 22.3568 11.7357C22.3568 12.8079 21.4876 13.6772 20.4153 13.6772H20.3279C19.6895 13.6797 19.1136 14.0612 18.8621 14.648Z" stroke="#627185" stroke-width="1.3" stroke-linecap="round" stroke-linejoin="round"/>
</svg>
